# xmcd
#
# Track frame offsets:
#	150
#	8757
#	34787
#	56028
#	60353
#	81639
#	102675
#	111061
#	126362
#	136784
#	156189
#
# Disc length: 2326 seconds
#
# Revision: 2
# Processed by: cddbd v1.5.2PL0 Copyright (c) Steve Scherf et al.
# Submitted via: audiograbber 1.83.01
#
DISCID=9309140b
DTITLE=Liturgy - Renihilation
DYEAR=1900
DGENRE=black metal
TTITLE0=(-)
TTITLE1=Pagan Dawn
TTITLE2=Mysterium
TTITLE3=(-)
TTITLE4=Ecstatic Rite
TTITLE5=Arctica
TTITLE6=(-)
TTITLE7=Beyond The Magic Forest
TTITLE8=(-)
TTITLE9=Behind The Void
TTITLE10=Renihilation
EXTD=
EXTT0=
EXTT1=
EXTT2=
EXTT3=
EXTT4=
EXTT5=
EXTT6=
EXTT7=
EXTT8=
EXTT9=
EXTT10=
PLAYORDER=
